Rihanna, Adam Levine, Eminem, Dr. Dre & Skylar Grey - Love The Way You Lie (Part II) & I Need A Doctor (The 53rd Annual Grammy Award 2011) HD 1080i

Format                           : MPEG-TS
File size                        : 820 MiB
Duration                         : 7mn 4s
Overall bit rate mode            : Variable
Overall bit rate                 : 16.2 Mbps

Video
ID                               : 49 (0x31)
Menu ID                          : 3 (0x3)
Format                           : MPEG Video
Format version                   : Version 2
Format profile                   : Main@High
Format settings, BVOP            : Yes
Format settings, Matrix          : Custom
Codec ID                         : 2
Duration                         : 7mn 4s
Bit rate mode                    : Variable
Bit rate                         : 15.0 Mbps
Maximum bit rate                 : 17.1 Mbps
Width                            : 1 920 pixels
Height                           : 1 080 pixels
Display aspect ratio             : 16:9
Frame rate                       : 29.970 fps
Standard                         : Component
Color space                      : YUV
Chroma subsampling               : 4:2:0
Bit depth                        : 8 bits
Scan type                        : Interlaced
Scan order                       : Top Field First
Compression mode                 : Lossy
Bits/(Pixel*Frame)               : 0.241
Stream size                      : 760 MiB (93%)
Writing library                  : (c) 1998-2010 Womble Multimedia, Inc. / MPEG Video Wizard DVD 5.0.0.114 (01/2010) / Dec 10 2010
Color primaries                  : BT.709
Transfer characteristics         : BT.709
Matrix coefficients              : BT.709

Audio
ID                               : 52 (0x34)
Menu ID                          : 3 (0x3)
Format                           : AC-3
Format/Info                      : Audio Coding 3
Mode extension                   : CM (complete main)
Codec ID                         : 129
Duration                         : 7mn 4s
Bit rate mode                    : Constant
Bit rate                         : 384 Kbps
Channel(s)                       : 6 channels
Channel positions                : Front: L C R, Side: L R, LFE
Sampling rate                    : 48.0 KHz
Bit depth                        : 16 bits
Compression mode                 : Lossy
Stream size                      : 19.5 MiB (2%)

Text #1
ID                               : 49 (0x31)-608-1
Menu ID                          : 3 (0x3)
Format                           : EIA-608
Muxing mode                      : A/53 / DTVCC Transport
Muxing mode, more info           : Muxed in Video #1
Duration                         : 7mn 4s
Bit rate mode                    : Constant
Stream size                      : 0.00 Byte (0%)

Text #2
ID                               : 49 (0x31)-1
Menu ID                          : 3 (0x3)
Format                           : EIA-708
Muxing mode                      : A/53 / DTVCC Transport
Muxing mode, more info           : Muxed in Video #1
Duration                         : 7mn 4s
Bit rate mode                    : Constant
Stream size                      : 0.00 Byte (0%)

